<?xml version="1.0" standalone="no"?><!DOCTYPE svg PUBLIC "-//W3C//DTD SVG 1.1//EN" "http://www.w3.org/Graphics/SVG/1.1/DTD/svg11.dtd"><svg t="1608712490574" class="icon" viewBox="0 0 1024 1024" version="1.1" xmlns="http://www.w3.org/2000/svg" p-id="8389" xmlns:xlink="http://www.w3.org/1999/xlink" width="200" height="200"><defs><style type="text/css"></style></defs><path d="M949.638095 487.619048C937.350095 264.777143 759.222857 86.649905 536.380952 74.361905L536.380952 1.219048C799.622095 13.653333 1010.346667 224.377905 1022.780952 487.619048L949.638095 487.619048ZM487.619048 74.361905C264.777143 86.649905 86.649905 264.777143 74.361905 487.619048L1.219048 487.619048C13.653333 224.377905 224.377905 13.653333 487.619048 1.219048L487.619048 74.361905ZM74.361905 536.380952C86.649905 759.222857 264.777143 937.350095 487.619048 949.638095L487.619048 1022.780952C224.377905 1010.346667 13.653333 799.622095 1.219048 536.380952L74.361905 536.380952ZM536.380952 778.971429 536.380952 705.365333C624.566857 694.345143 694.345143 624.566857 705.365333 536.380952L778.971429 536.380952C767.341714 665.014857 665.014857 767.341714 536.380952 778.971429ZM778.971429 487.619048 705.365333 487.619048C694.345143 399.433143 624.566857 329.654857 536.380952 318.634667L536.380952 245.028571C665.014857 256.658286 767.341714 358.985143 778.971429 487.619048ZM487.619048 245.028571 487.619048 318.634667C399.433143 329.654857 329.654857 399.433143 318.634667 487.619048L245.028571 487.619048C256.658286 358.985143 358.985143 256.658286 487.619048 245.028571ZM245.028571 536.380952 318.634667 536.380952C329.654857 624.566857 399.433143 694.345143 487.619048 705.365333L487.619048 778.971429C358.985143 767.341714 256.658286 665.014857 245.028571 536.380952ZM536.380952 949.638095C759.222857 937.350095 937.350095 759.222857 949.638095 536.380952L1022.780952 536.380952C1010.346667 799.622095 799.622095 1010.346667 536.380952 1022.780952L536.380952 949.638095Z" p-id="8390"></path></svg>