<?xml version="1.0" standalone="no"?><!DOCTYPE svg PUBLIC "-//W3C//DTD SVG 1.1//EN" "http://www.w3.org/Graphics/SVG/1.1/DTD/svg11.dtd"><svg t="1608713208729" class="icon" viewBox="0 0 1024 1024" version="1.1" xmlns="http://www.w3.org/2000/svg" p-id="18713" xmlns:xlink="http://www.w3.org/1999/xlink" width="1000" height="1000"><defs><style type="text/css"></style></defs><path d="M921.6 95.573333c0-27.306667-25.6-20.48-34.133333-11.946666-15.36 17.066667-56.32 51.2-143.36 68.266666-13.653333 3.413333-27.306667 5.12-40.96 5.12-42.666667 0-76.8-13.653333-117.76-29.013333-46.08-18.773333-98.986667-39.253333-170.666667-39.253333h-18.773333c-78.506667 3.413333-145.066667 37.546667-194.56 63.146666-13.653333 6.826667-29.013333 13.653333-42.666667 20.48L153.6 162.133333c-6.826667-15.36-25.6-23.893333-40.96-17.066666-6.826667 3.413333-13.653333 8.533333-17.066667 17.066666-3.413333 6.826667-3.413333 17.066667 0 23.893334l322.56 764.586666c5.12 11.946667 15.36 18.773333 29.013334 18.773334 5.12 0 8.533333 0 11.946666-1.706667 15.36-6.826667 23.893333-25.6 17.066667-40.96L365.226667 665.6c13.653333-23.893333 46.08-63.146667 105.813333-80.213333 18.773333-5.12 39.253333-8.533333 61.44-8.533334 40.96 0 81.92 8.533333 124.586667 18.773334 39.253333 8.533333 78.506667 18.773333 117.76 18.773333 59.733333 0 104.106667-20.48 143.36-63.146667 1.706667-1.706667 1.706667-6.826667 3.413333-10.24V95.573333z" p-id="18714"></path></svg>