<?xml version="1.0" standalone="no"?><!DOCTYPE svg PUBLIC "-//W3C//DTD SVG 1.1//EN" "http://www.w3.org/Graphics/SVG/1.1/DTD/svg11.dtd"><svg t="1608713084442" class="icon" viewBox="0 0 1056 1024" version="1.1" xmlns="http://www.w3.org/2000/svg" p-id="17046" xmlns:xlink="http://www.w3.org/1999/xlink" width="1031.25" height="1000"><defs><style type="text/css"></style></defs><path d="M1023.36002 163.098903h-155.131152V55.486266a49.502453 49.502453 0 1 0-99.004906 0v107.612637H287.287022V49.534452a49.502453 49.502453 0 1 0-99.004906 0v113.564451h-155.19515c-18.23943 0-33.022968 14.783538-33.022968 33.022968l0.063998 2.079935V198.105809v792.231243c0 18.23943 14.783538 33.022968 33.022968 33.022968h990.305053c18.23943 0 33.022968-14.783538 33.022968-33.022968V198.105809l0.063998-1.983938c0-18.23943-14.783538-33.022968-33.022968-33.022968h-0.063998zM204.057623 315.606137h514.287929a25.119215 25.119215 0 0 1 0.127996 49.502453l-0.159995 0.031999H204.025624a25.119215 25.119215 0 0 1-0.127996-49.502453l0.159995-0.031999z m0 180.250367h267.383644a25.119215 25.119215 0 0 1 0.127996 49.502454l-0.159995 0.031999H207.321521a25.119215 25.119215 0 0 1-0.127996-49.502454l0.159995-0.031999z m0 180.218369H645.739821a25.087216 25.087216 0 1 1-0.127996 49.502453l0.159995 0.031999H204.089622a25.119215 25.119215 0 0 1-0.127996-49.502453l0.159995-0.031999z m639.084029 229.75282H204.057623a25.119215 25.119215 0 0 1-0.127996-49.502453l0.159995-0.031999H843.173651a25.087216 25.087216 0 1 1-0.127996 49.502453l0.159995 0.031999z" p-id="17047"></path></svg>