<?xml version="1.0" standalone="no"?><!DOCTYPE svg PUBLIC "-//W3C//DTD SVG 1.1//EN" "http://www.w3.org/Graphics/SVG/1.1/DTD/svg11.dtd"><svg t="1608713561642" class="icon" viewBox="0 0 1024 1024" version="1.1" xmlns="http://www.w3.org/2000/svg" p-id="1918" xmlns:xlink="http://www.w3.org/1999/xlink" width="1000" height="1000"><defs><style type="text/css"></style></defs><path d="M183.751111 736.028444V415.914667c0-154.737778 112.810667-283.875556 262.599111-313.571556v-38.4C446.350222 28.615111 475.761778 0 512 0c36.238222 0 65.649778 28.615111 65.649778 64V102.4c149.788444 29.639111 262.542222 158.776889 262.542222 313.628444v320h32.938667c36.181333 0 65.536 28.387556 65.536 63.943112 0 35.384889-29.354667 64.056889-65.536 64.056888H150.869333c-36.181333 0-65.536-28.444444-65.536-64.056888 0-35.328 29.354667-63.943111 65.536-63.943112h32.938667z m426.666667 191.943112C610.417778 981.048889 566.442667 1024 512 1024s-98.417778-42.951111-98.417778-96.028444h196.835556z" p-id="1919"></path></svg>