<?xml version="1.0" standalone="no"?><!DOCTYPE svg PUBLIC "-//W3C//DTD SVG 1.1//EN" "http://www.w3.org/Graphics/SVG/1.1/DTD/svg11.dtd"><svg t="1608711833029" class="icon" viewBox="0 0 1044 1024" version="1.1" xmlns="http://www.w3.org/2000/svg" p-id="3100" xmlns:xlink="http://www.w3.org/1999/xlink" width="203.90625" height="200"><defs><style type="text/css"></style></defs><path d="M31.815893 391.042923a39.056751 39.056751 0 0 1-27.134934-13.567467 35.070622 35.070622 0 0 1 9.032788-45.20051L506.494388 6.802018a27.354354 27.354354 0 0 1 36.167722 0l488.245961 325.472928a32.583863 32.583863 0 0 1-35.984872 54.160158L524.596534 70.068104l-474.678495 316.367c-4.534679 0-9.069358 4.607819-18.102146 4.607819zM881.556225 1023.959773h-709.457843a52.221948 52.221948 0 0 1-54.233298-54.233298V458.880258a31.669613 31.669613 0 0 1 63.302656 0v501.703719h691.538547V458.880258a31.669613 31.669613 0 0 1 63.302656 0v510.846217A54.854988 54.854988 0 0 1 881.556225 1023.959773z" p-id="3101"></path><path d="M525.071944 873.437686c-8.411098 0-113.549825-19.418666-197.697377-174.804561-58.877687-106.820946-50.466589-281.588938-50.466588-291.353125a31.194203 31.194203 0 0 1 29.438843-34.010093 44.54225 44.54225 0 0 0 29.438844-9.727618 41.689791 41.689791 0 0 0 8.411098-24.282474 36.569992 36.569992 0 0 1 21.027745-34.010093l151.436336-63.119806c4.205549-4.863809 12.616647-4.863809 21.027746 0l151.436336 63.119806a36.569992 36.569992 0 0 1 21.027746 34.010093c0 14.627997 4.205549 24.282475 8.411098 24.282474a40.921821 40.921821 0 0 0 29.438843 9.727618 31.194203 31.194203 0 0 1 29.438844 34.010093c0 4.863809 8.411098 179.66837-50.466589 291.353125a353.924382 353.924382 0 0 1-193.491827 174.804561zM335.785666 441.253522c0 48.564949 4.205549 155.385896 42.05549 223.369511 58.877687 111.684755 130.372021 135.96723 147.230788 140.831038a274.786919 274.786919 0 0 0 151.436336-140.831038c37.849942-67.983615 42.055491-174.804561 42.055491-223.369511a94.533429 94.533429 0 0 1-42.055491-24.282474 145.256008 145.256008 0 0 1-25.233294-48.56495l-121.960923-48.564949-126.166472 48.564949a122.107203 122.107203 0 0 1-21.027746 48.56495 230.829789 230.829789 0 0 1-46.297609 24.282474z" p-id="3102"></path><path d="M456.539779 696.804626l-24.282475-14.627997v-14.627997l9.727618-63.119806-48.564949-53.428758 9.727618-29.255994 14.627996-4.863809 53.428759-9.727617 34.010092-63.119806h29.255994l9.727617 14.627996 29.255994 48.56495 72.847424 14.627996 9.727618 29.255994-9.727618 14.627997-38.837332 38.837331 9.727618 72.847424-24.282474 19.418666-14.627997-4.863809-53.428758-24.282475z m4.863809-135.96723l29.255993 29.255993v14.627997l-4.863809 29.255993 38.837332-19.418665 38.837331 19.418665-4.863809-38.837331 29.255994-29.255993-38.837332-9.727618-24.282474-38.837332-19.418666 34.010093z" p-id="3103"></path></svg>