<?xml version="1.0" standalone="no"?><!DOCTYPE svg PUBLIC "-//W3C//DTD SVG 1.1//EN" "http://www.w3.org/Graphics/SVG/1.1/DTD/svg11.dtd"><svg t="1608712665042" class="icon" viewBox="0 0 1024 1024" version="1.1" xmlns="http://www.w3.org/2000/svg" p-id="13372" xmlns:xlink="http://www.w3.org/1999/xlink" width="200" height="200"><defs><style type="text/css"></style></defs><path d="M629.504 426.666667c41.216 0 74.666667 33.450667 74.666667 74.666666v202.624a192.042667 192.042667 0 0 1-384.085334 0V501.333333c0-41.216 33.408-74.666667 74.666667-74.666666h234.752z m-325.248 0c-14.933333 18.005333-24.533333 40.533333-26.453333 65.28l-0.426667 9.386666v202.624c0 36.138667 8.192 70.357333 22.784 100.906667A170.709333 170.709333 0 0 1 85.333333 639.957333V501.333333a74.666667 74.666667 0 0 1 68.522667-74.410666L160 426.666667h144.256z m415.744 0h144c41.216 0 74.666667 33.450667 74.666667 74.666666V640a170.666667 170.666667 0 0 1-214.613334 164.949333c12.8-26.794667 20.650667-56.32 22.4-87.552l0.384-13.44V501.333333c0-28.373333-10.069333-54.4-26.88-74.666666zM512 128a128 128 0 1 1 0 256 128 128 0 0 1 0-256z m277.333333 42.666667a106.666667 106.666667 0 1 1 0 213.333333 106.666667 106.666667 0 0 1 0-213.333333z m-554.666666 0a106.666667 106.666667 0 1 1 0 213.333333 106.666667 106.666667 0 0 1 0-213.333333z" p-id="13373"></path></svg>